<?xml version="1.0" encoding="UTF-8" standalone="no"?>
<!-- Created with Inkscape (http://www.inkscape.org/) -->

<svg
   width="993.05829"
   height="555.14282"
   viewBox="0 0 262.74667 146.88154"
   version="1.1"
   id="svg1959"
   inkscape:version="1.2.2 (b0a8486541, 2022-12-01)"
   sodipodi:docname="cartoon.svg"
   inkscape:export-filename="../cartoon.png"
   inkscape:export-xdpi="180"
   inkscape:export-ydpi="180"
   xmlns:inkscape="http://www.inkscape.org/namespaces/inkscape"
   xmlns:sodipodi="http://sodipodi.sourceforge.net/DTD/sodipodi-0.dtd"
   xmlns="http://www.w3.org/2000/svg"
   xmlns:svg="http://www.w3.org/2000/svg">
  <sodipodi:namedview
     id="namedview1961"
     pagecolor="#282a36"
     bordercolor="#000000"
     borderopacity="0.25"
     inkscape:showpageshadow="2"
     inkscape:pageopacity="0"
     inkscape:pagecheckerboard="0"
     inkscape:deskcolor="#d1d1d1"
     inkscape:document-units="px"
     showgrid="false"
     inkscape:zoom="0.37237654"
     inkscape:cx="491.43804"
     inkscape:cy="146.35723"
     inkscape:window-width="1510"
     inkscape:window-height="1011"
     inkscape:window-x="0"
     inkscape:window-y="32"
     inkscape:window-maximized="0"
     inkscape:current-layer="layer1" />
  <defs
     id="defs1956" />
  <g
     inkscape:label="Layer 1"
     inkscape:groupmode="layer"
     id="layer1"
     transform="translate(-1.85475,-70.151729)">
    <path
       style="fill:#6272a4;fill-opacity:1;stroke:none;stroke-width:0.493058;stroke-linecap:butt;stroke-linejoin:miter;stroke-miterlimit:4;stroke-dasharray:none;stroke-opacity:1"
       d="m 1.85475,170.73201 c 0,0 2.20985,-2.57815 3.8304,-2.8728 1.62057,-0.29464 2.43085,0.22098 3.02013,0.22098 0.58931,0 5.08268,-0.14731 6.33492,-0.44196 1.25226,-0.29465 4.19873,-0.88396 6.62956,-2.43084 2.43085,-1.5469 3.75675,-2.65183 5.37731,-3.16746 1.62057,-0.51563 5.30365,-1.25227 6.70322,-1.98886 1.39958,-0.73663 8.76575,-7.36619 9.20772,-8.02915 0.44197,-0.66295 1.76789,-2.20985 3.90407,-2.72548 2.1362,-0.51564 3.02015,-0.81028 3.31479,-1.25226 0.29464,-0.44196 0.21771,-1.06055 0.47815,-1.24286 0.26043,-0.1823 1.35425,-0.41669 1.64073,-0.41669 0.28647,0 1.3282,-0.026 1.84908,-0.44274 0.52087,-0.41669 1.23706,-1.01569 1.47144,-1.08079 0.23439,-0.0651 2.30484,-0.27346 2.73455,-0.57296 0.42973,-0.2995 0.93757,-1.31519 1.47145,-1.47145 0.5339,-0.15626 2.26578,0.27345 2.68247,-0.15626 0.41671,-0.42972 0.876,-1.66936 1.57579,-1.87194 0.69978,-0.20257 1.7863,0.40515 2.61499,0.36831 0.82869,-0.0368 1.09603,-0.52776 1.61689,-0.76214 0.52087,-0.2344 4.63573,-0.67714 5.18263,-0.80735 0.54691,-0.13022 4.06278,-0.0521 4.42737,-0.18231 0.36462,-0.13021 1.74492,-1.11986 2.50018,-1.32821 0.75525,-0.20835 4.68779,-0.10417 6.17227,-0.31252 1.48448,-0.20835 5.05241,-0.93756 5.59932,-1.32822 0.54692,-0.39064 0.70317,-0.93755 1.27614,-1.19799 0.57294,-0.26043 10.70383,-2.10951 10.70383,-2.10951 0,0 1.11986,-0.98964 1.84906,-1.27614 0.72922,-0.28647 3.62003,-1.01569 4.37529,-1.43237 0.75526,-0.41669 1.84908,-1.25008 2.60434,-1.56261 0.75525,-0.31252 3.35959,-1.30216 4.47946,-2.39599 1.11986,-1.09382 2.18764,-2.73455 2.91686,-2.99498 0.72921,-0.26044 3.1252,-0.39065 4.4534,-1.30218 1.32823,-0.91151 2.16161,0.65109 2.96896,1.06778 0.80733,0.4167 2.34389,0.62505 3.22937,1.22405 0.88547,0.59899 2.18764,1.82303 2.70851,2.60433 0.52086,0.78131 2.10951,1.3803 2.63037,1.53656 0.52087,0.15626 1.45845,0.85944 1.69283,1.17195 0.23439,0.31252 0.96359,1.0157 1.51051,1.11987 0.5469,0.10418 2.18764,0.88548 2.96895,1.82304 0,0 0.33856,0.70317 1.09382,0.70317 0.75525,0 2.60434,1.01569 2.60434,1.01569 0,0 3.85441,2.89082 5.00033,2.96895 1.1459,0.0781 1.0938,-0.26044 1.64073,-0.0521 0.5469,0.20835 2.57829,1.87513 2.99498,2.1616 0.41669,0.28649 2.76059,1.64074 3.48981,1.66678 0.72922,0.026 0.67712,-0.33857 1.04174,0 0.3646,0.33857 0.98964,1.01569 1.19799,1.45844 0.20836,0.44273 1.58865,3.04707 1.90118,3.33354 0.31251,0.28648 2.34389,2.36995 2.78663,2.65643 0.44273,0.28648 3.5419,2.3439 4.19298,2.65642 0.65108,0.31253 2.39599,1.11988 2.83873,1.58865 0.44273,0.46878 2.31786,2.10951 2.83871,2.47412 0.52088,0.36461 2.13557,1.69282 2.55227,2.03138 0.41668,0.33857 2.65643,1.797 3.22938,2.05744 0.57294,0.26043 0.83338,0.57295 1.19798,2.00533 0.36461,1.43239 1.64074,1.74491 2.13557,2.05743 0.49482,0.31253 1.90116,1.17196 2.3439,2.63038 v 0 c 0,0 1.04694,-0.16667 1.66677,0.0156 0.61984,0.18231 1.42198,1.0209 2.18764,1.16675 0.76569,0.14584 1.75012,-0.25523 2.47933,-0.14585 0.72922,0.10939 2.44286,1.6772 3.75545,1.82304 1.31259,0.14584 3.68254,0.51045 4.66698,0.58337 0.98444,0.0729 4.30236,0 4.77635,-0.14585 0.47399,-0.14584 1.60427,-0.29168 1.96888,-0.21876 0.36461,0.0729 2.18765,1.27613 2.80747,1.45843 0.61984,0.1823 1.96889,0.14584 2.47933,0.0365 0.51046,-0.10938 1.38552,-0.43753 1.71366,-0.1823 0.32815,0.25523 1.02091,0.91151 1.31259,1.02089 0.29167,0.10939 3.28147,1.3126 4.04713,1.34905 0.76569,0.0365 3.5367,-1.67719 4.15653,-1.93242 0.61984,-0.25522 2.2241,-0.43752 3.53669,0.0365 1.31258,0.47399 2.62518,1.38551 2.88039,1.56782 0.25524,0.18231 3.53669,1.34904 4.48467,1.31258 0.94798,-0.0365 2.18765,0.10938 2.98979,0.40108 0.80213,0.29169 3.35437,0.76566 5.10449,0.76566 1.75011,0 4.19298,0.76569 5.06804,0.76569 0.87506,0 5.72433,-0.76569 7.03691,-1.09383 1.31259,-0.32815 7.83907,-1.27612 7.83907,-1.27612 v 0 43.59981 H 1.85475 Z"
       id="path826"
       inkscape:connector-curvature="0"
       sodipodi:nodetypes="ccsccsccssssccscccsccssscccccscsccscccccscccscccsccccccsscccsccscsccscccccccsssccccc"
       inkscape:export-xdpi="95.999969"
       inkscape:export-ydpi="95.999969" />
    <path
       id="path9709"
       style="fill:#ff5555;fill-opacity:1;stroke:none;stroke-width:4;stroke-linecap:round;stop-color:#000000"
       d="m 96.659732,134.54992 c -1.612474,0.3174 -2.996222,0.60049 -3.18947,0.68833 -0.572969,0.26044 -0.728971,0.80722 -1.275891,1.19786 -0.546909,0.39066 -4.115179,1.11974 -5.599658,1.32809 -0.547015,0.0768 -1.442614,0.10756 -2.372982,0.13074 L 44.188,217.03326 h 11.64425 z" />
    <path
       id="path9854"
       style="fill:#ff5555;fill-opacity:1;stroke:none;stroke-width:0.493058;stroke-linecap:butt;stroke-linejoin:miter;stroke-miterlimit:4;stroke-dasharray:none;stroke-opacity:1"
       d="m 158.36501,182.21988 c -4.7442,0.0526 -9.85722,0.74067 -16.33285,1.08986 -8.63419,0.46558 -23.02114,0.33872 -30.80484,2.0097 -7.7837,1.67097 -15.06318,2.06885 -15.825909,5.91695 -0.76273,3.84809 0.884592,2.95929 4.863789,4.52323 3.97919,1.56395 13.09192,-0.0971 19.01124,-0.003 5.91931,0.094 11.37162,-4.56768 16.5008,0.5271 3.37889,3.35624 2.75507,13.91624 1.93683,20.74964 h 5.48391 c -0.0386,-0.88472 -0.0718,-1.72732 -0.0889,-2.4076 -0.089,-3.54751 -0.36325,-7.37022 0,-10.32289 0.36325,-2.95266 -0.97649,-5.19811 1.82418,-7.30239 2.80067,-2.10429 7.42865,0.57031 13.48238,0.50281 6.05374,-0.0675 19.58376,3.09522 22.79241,-1.35909 3.20864,-4.45432 0.47866,-6.69509 -2.62465,-9.75858 -3.1033,-3.06349 -9.41531,-3.33125 -15.56029,-3.9703 -1.53624,-0.15976 -3.07671,-0.21287 -4.65811,-0.19534 z" />
    <path
       style="fill:#fa9600;fill-opacity:1;stroke:none;stroke-width:0.0365588px;stroke-linecap:butt;stroke-linejoin:miter;stroke-opacity:1"
       d="m 245.58474,175.18223 -4.2799,-6.72089 h 8.55982 z"
       id="path842"
       inkscape:connector-curvature="0"
       sodipodi:nodetypes="cccc"
       inkscape:export-xdpi="95.999969"
       inkscape:export-ydpi="95.999969" />
    <path
       style="fill:#fa9600;fill-opacity:1;stroke:none;stroke-width:0.0365588px;stroke-linecap:butt;stroke-linejoin:miter;stroke-opacity:1"
       d="m 212.62425,170.55064 -4.27991,-6.72087 h 8.55983 z"
       id="path846"
       inkscape:connector-curvature="0"
       sodipodi:nodetypes="cccc"
       inkscape:export-xdpi="95.999969"
       inkscape:export-ydpi="95.999969" />
    <path
       sodipodi:nodetypes="cccc"
       inkscape:connector-curvature="0"
       id="path848"
       d="m 179.95545,158.26445 -4.27991,-6.72087 h 8.55983 z"
       style="fill:#fa9600;fill-opacity:1;stroke:none;stroke-width:0.0365588px;stroke-linecap:butt;stroke-linejoin:miter;stroke-opacity:1"
       inkscape:export-xdpi="95.999969"
       inkscape:export-ydpi="95.999969" />
    <path
       sodipodi:nodetypes="cccc"
       inkscape:connector-curvature="0"
       id="path852"
       d="m 158.60478,141.17074 -4.27992,-6.72088 h 8.55982 z"
       style="fill:#fa9600;fill-opacity:1;stroke:none;stroke-width:0.0365588px;stroke-linecap:butt;stroke-linejoin:miter;stroke-opacity:1"
       inkscape:export-xdpi="95.999969"
       inkscape:export-ydpi="95.999969" />
    <path
       style="fill:#fa9600;fill-opacity:1;stroke:none;stroke-width:0.0365588px;stroke-linecap:butt;stroke-linejoin:miter;stroke-opacity:1"
       d="m 125.64429,121.6278 -4.27992,-6.72087 h 8.55984 z"
       id="path854"
       inkscape:connector-curvature="0"
       sodipodi:nodetypes="cccc"
       inkscape:export-xdpi="95.999969"
       inkscape:export-ydpi="95.999969" />
    <path
       sodipodi:nodetypes="cccc"
       inkscape:connector-curvature="0"
       id="path856"
       d="m 112.81011,129.04077 -4.2799,-6.72088 h 8.55982 z"
       style="fill:#fa9600;fill-opacity:1;stroke:none;stroke-width:0.0365588px;stroke-linecap:butt;stroke-linejoin:miter;stroke-opacity:1"
       inkscape:export-xdpi="95.999969"
       inkscape:export-ydpi="95.999969" />
    <path
       sodipodi:nodetypes="cccc"
       inkscape:connector-curvature="0"
       id="path860"
       d="m 89.47526,137.63511 -4.27992,-6.72087 h 8.55983 z"
       style="fill:#fa9600;fill-opacity:1;stroke:none;stroke-width:0.0365588px;stroke-linecap:butt;stroke-linejoin:miter;stroke-opacity:1"
       inkscape:export-xdpi="95.999969"
       inkscape:export-ydpi="95.999969" />
    <path
       style="fill:#fa9600;fill-opacity:1;stroke:none;stroke-width:0.0365588px;stroke-linecap:butt;stroke-linejoin:miter;stroke-opacity:1"
       d="m 59.43163,142.88546 -4.27992,-6.72088 h 8.55983 z"
       id="path862"
       inkscape:connector-curvature="0"
       sodipodi:nodetypes="cccc"
       inkscape:export-xdpi="95.999969"
       inkscape:export-ydpi="95.999969" />
    <path
       style="fill:#fa9600;fill-opacity:1;stroke:none;stroke-width:0.0365588px;stroke-linecap:butt;stroke-linejoin:miter;stroke-opacity:1"
       d="m 37.84688,157.00719 -4.27991,-6.72087 h 8.55982 z"
       id="path866"
       inkscape:connector-curvature="0"
       sodipodi:nodetypes="cccc"
       inkscape:export-xdpi="95.999969"
       inkscape:export-ydpi="95.999969" />
    <path
       sodipodi:nodetypes="cccc"
       inkscape:connector-curvature="0"
       id="path868"
       d="m 13.92865,167.74952 -4.27991,-6.72086 h 8.55982 z"
       style="fill:#fa9600;fill-opacity:1;stroke:none;stroke-width:0.0365588px;stroke-linecap:butt;stroke-linejoin:miter;stroke-opacity:1"
       inkscape:export-xdpi="95.999969"
       inkscape:export-ydpi="95.999969" />
    <circle
       style="vector-effect:none;fill:#8be9fd;fill-opacity:1;stroke:none;stroke-width:0.493058;stroke-linecap:butt;stroke-linejoin:miter;stroke-miterlimit:4;stroke-dasharray:none;stroke-dashoffset:0;stroke-opacity:1;paint-order:fill markers stroke"
       id="path870"
       cx="254.28671"
       cy="80.88118"
       r="2.4793284"
       inkscape:export-xdpi="95.999969"
       inkscape:export-ydpi="95.999969" />
    <circle
       cy="80.88118"
       cx="237.19717"
       id="circle872"
       style="vector-effect:none;fill:#8be9fd;fill-opacity:1;stroke:none;stroke-width:0.493058;stroke-linecap:butt;stroke-linejoin:miter;stroke-miterlimit:4;stroke-dasharray:none;stroke-dashoffset:0;stroke-opacity:1;paint-order:fill markers stroke"
       r="2.4793284"
       inkscape:export-xdpi="95.999969"
       inkscape:export-ydpi="95.999969" />
    <circle
       style="vector-effect:none;fill:#8be9fd;fill-opacity:1;stroke:none;stroke-width:0.493058;stroke-linecap:butt;stroke-linejoin:miter;stroke-miterlimit:4;stroke-dasharray:none;stroke-dashoffset:0;stroke-opacity:1;paint-order:fill markers stroke"
       id="circle874"
       cx="220.10762"
       cy="80.88118"
       r="2.4793284"
       inkscape:export-xdpi="95.999969"
       inkscape:export-ydpi="95.999969" />
    <circle
       cy="80.88118"
       cx="203.01808"
       id="circle876"
       style="vector-effect:none;fill:#8be9fd;fill-opacity:1;stroke:none;stroke-width:0.493058;stroke-linecap:butt;stroke-linejoin:miter;stroke-miterlimit:4;stroke-dasharray:none;stroke-dashoffset:0;stroke-opacity:1;paint-order:fill markers stroke"
       r="2.4793284"
       inkscape:export-xdpi="95.999969"
       inkscape:export-ydpi="95.999969" />
    <circle
       style="vector-effect:none;fill:#8be9fd;fill-opacity:1;stroke:none;stroke-width:0.493058;stroke-linecap:butt;stroke-linejoin:miter;stroke-miterlimit:4;stroke-dasharray:none;stroke-dashoffset:0;stroke-opacity:1;paint-order:fill markers stroke"
       id="circle878"
       cx="185.92856"
       cy="76.54985"
       r="2.4793284"
       inkscape:export-xdpi="95.999969"
       inkscape:export-ydpi="95.999969" />
    <circle
       cy="81.087418"
       cx="168.83902"
       id="circle880"
       style="vector-effect:none;fill:#8be9fd;fill-opacity:1;stroke:none;stroke-width:0.493058;stroke-linecap:butt;stroke-linejoin:miter;stroke-miterlimit:4;stroke-dasharray:none;stroke-dashoffset:0;stroke-opacity:1;paint-order:fill markers stroke"
       r="2.4793284"
       inkscape:export-xdpi="95.999969"
       inkscape:export-ydpi="95.999969" />
    <circle
       style="vector-effect:none;fill:#8be9fd;fill-opacity:1;stroke:none;stroke-width:0.493058;stroke-linecap:butt;stroke-linejoin:miter;stroke-miterlimit:4;stroke-dasharray:none;stroke-dashoffset:0;stroke-opacity:1;paint-order:fill markers stroke"
       id="circle886"
       cx="151.7495"
       cy="82.943695"
       r="2.4793284"
       inkscape:export-xdpi="95.999969"
       inkscape:export-ydpi="95.999969" />
    <circle
       cy="82.943695"
       cx="134.65993"
       id="circle888"
       style="vector-effect:none;fill:#8be9fd;fill-opacity:1;stroke:none;stroke-width:0.493058;stroke-linecap:butt;stroke-linejoin:miter;stroke-miterlimit:4;stroke-dasharray:none;stroke-dashoffset:0;stroke-opacity:1;paint-order:fill markers stroke"
       r="2.4793284"
       inkscape:export-xdpi="95.999969"
       inkscape:export-ydpi="95.999969" />
    <circle
       cy="78.818634"
       cx="117.57043"
       id="circle896"
       style="vector-effect:none;fill:#8be9fd;fill-opacity:1;stroke:none;stroke-width:0.493058;stroke-linecap:butt;stroke-linejoin:miter;stroke-miterlimit:4;stroke-dasharray:none;stroke-dashoffset:0;stroke-opacity:1;paint-order:fill markers stroke"
       r="2.4793284"
       inkscape:export-xdpi="95.999969"
       inkscape:export-ydpi="95.999969" />
    <circle
       style="vector-effect:none;fill:#8be9fd;fill-opacity:1;stroke:none;stroke-width:0.493058;stroke-linecap:butt;stroke-linejoin:miter;stroke-miterlimit:4;stroke-dasharray:none;stroke-dashoffset:0;stroke-opacity:1;paint-order:fill markers stroke"
       id="circle898"
       cx="100.48087"
       cy="82.943695"
       r="2.4793284"
       inkscape:export-xdpi="95.999969"
       inkscape:export-ydpi="95.999969" />
    <circle
       cy="78.818634"
       cx="83.391304"
       id="circle900"
       style="vector-effect:none;fill:#8be9fd;fill-opacity:1;stroke:none;stroke-width:0.493058;stroke-linecap:butt;stroke-linejoin:miter;stroke-miterlimit:4;stroke-dasharray:none;stroke-dashoffset:0;stroke-opacity:1;paint-order:fill markers stroke"
       r="2.4793284"
       inkscape:export-xdpi="95.999969"
       inkscape:export-ydpi="95.999969" />
    <circle
       style="vector-effect:none;fill:#8be9fd;fill-opacity:1;stroke:none;stroke-width:0.493058;stroke-linecap:butt;stroke-linejoin:miter;stroke-miterlimit:4;stroke-dasharray:none;stroke-dashoffset:0;stroke-opacity:1;paint-order:fill markers stroke"
       id="circle902"
       cx="66.301796"
       cy="76.756119"
       r="2.4793284"
       inkscape:export-xdpi="95.999969"
       inkscape:export-ydpi="95.999969" />
    <circle
       cy="72.631058"
       cx="49.212227"
       id="circle904"
       style="vector-effect:none;fill:#8be9fd;fill-opacity:1;stroke:none;stroke-width:0.493058;stroke-linecap:butt;stroke-linejoin:miter;stroke-miterlimit:4;stroke-dasharray:none;stroke-dashoffset:0;stroke-opacity:1;paint-order:fill markers stroke"
       r="2.4793284"
       inkscape:export-xdpi="95.999969"
       inkscape:export-ydpi="95.999969" />
    <circle
       style="vector-effect:none;fill:#8be9fd;fill-opacity:1;stroke:none;stroke-width:0.493058;stroke-linecap:butt;stroke-linejoin:miter;stroke-miterlimit:4;stroke-dasharray:none;stroke-dashoffset:0;stroke-opacity:1;paint-order:fill markers stroke"
       id="circle906"
       cx="32.122688"
       cy="83.149948"
       r="2.4793284"
       inkscape:export-xdpi="95.999969"
       inkscape:export-ydpi="95.999969" />
    <g
       transform="matrix(0.01001242,0,0,-0.01001242,1.90819,88.333735)"
       id="g4"
       style="fill:#8be9fd;fill-opacity:1;stroke:none"
       inkscape:export-xdpi="95.999969"
       inkscape:export-ydpi="95.999969">
      <path
         style="fill:#8be9fd;fill-opacity:1;stroke:none"
         inkscape:connector-curvature="0"
         d="m 924,642 q 0,-13 8.5,-22.5 8.5,-9.5 24.5,-9.5 13,0 26,6.5 13,6.5 23.5,17.5 10.5,11 17,25 6.5,14 6.5,30 0,38 -39,38 -14,0 -26,-8 -12,-8 -21,-20.5 Q 935,686 929.5,671 924,656 924,642 Z m -30,62 q 0,20 -14.5,28.5 -14.5,8.5 -30.5,8.5 -24,0 -47,-29 -22,-28 -22,-53 0,-40 45,-40 28,0 48,33 10,17 15.5,30 5.5,13 5.5,22 z m 1379,115 q 0,-34 -44,-66 76,-129 76,-179 0,-48 -46,-48 -33,0 -86,36.5 Q 2120,599 2058,664 1969,626 1866,593.5 1763,561 1643,533 1801,78 1801,-95 q 0,-178 -137,-178 -128,0 -298,197 -171,198 -325,527 L 870,445 Q 710,440 579,459.5 448,479 355,516 q -93,37 -143,87 -50,50 -47,106 2,36 23.5,71 21.5,35 59.5,65 20,15 44,28.5 24,13.5 52,27.5 55,27 65,27 14,-97 111,-180 99,-84 141,-84 18,0 48,32 30,30 30,46 0,14 -8.5,24 -8.5,10 -32.5,24 -35,20 -65,46 -30,26 -53,57.5 -23,31.5 -38,67.5 -15,36 -19,75 124,77 295,77 -9,54 -13,106 -4,52 -4,105 0,96 15.5,172.5 15.5,76.5 47.5,134.5 63,117 168,117 47,0 101,-44 54,-44 111,-132 57,-88 116.5,-220 59.5,-132 117.5,-309 144,-26 277.5,-52.5 Q 1889,964 2014,937 q 11,12 31,31.5 20,19.5 50,47.5 60,55 105.5,77.5 45.5,22.5 83.5,22.5 52,0 52,-44 0,-26 -23.5,-75.5 Q 2289,947 2243,872 q 30,-27 30,-53 z"
         id="path2" />
    </g>
    <g
       id="g10355"
       transform="translate(27.901211,47.688593)">
      <circle
         style="fill:#ffb86c;fill-opacity:1;stroke:none;stroke-width:4;stroke-linecap:round;stop-color:#000000"
         id="path2307"
         cx="88.967331"
         cy="-34.406551"
         r="11.803391" />
      <circle
         style="fill:#6272a4;fill-opacity:1;stroke:none;stroke-width:4;stroke-linecap:round;stop-color:#000000"
         id="circle3865"
         cx="3.8132353"
         cy="-34.406551"
         r="11.803391" />
      <circle
         style="fill:#8be9fd;fill-opacity:1;stroke:none;stroke-width:4;stroke-linecap:round;stop-color:#000000"
         id="circle4593"
         cx="32.197933"
         cy="-34.406551"
         r="11.803391" />
      <circle
         style="fill:#50fa7b;fill-opacity:1;stroke:none;stroke-width:4;stroke-linecap:round;stop-color:#000000"
         id="circle4595"
         cx="60.58263"
         cy="-34.406551"
         r="11.803391" />
      <circle
         style="fill:#ff79c6;fill-opacity:1;stroke:none;stroke-width:4;stroke-linecap:round;stop-color:#000000"
         id="circle4597"
         cx="117.35203"
         cy="-34.406551"
         r="11.803391" />
      <circle
         style="fill:#bd93f9;fill-opacity:1;stroke:none;stroke-width:4;stroke-linecap:round;stop-color:#000000"
         id="circle6777"
         cx="145.73672"
         cy="-34.406551"
         r="11.803391" />
      <circle
         style="fill:#ff5555;fill-opacity:1;stroke:none;stroke-width:4;stroke-linecap:round;stop-color:#000000"
         id="circle7505"
         cx="174.12141"
         cy="-34.406551"
         r="11.803391" />
      <circle
         style="fill:#f1fa8c;fill-opacity:1;stroke:none;stroke-width:4;stroke-linecap:round;stop-color:#000000"
         id="circle8233"
         cx="202.50612"
         cy="-34.406551"
         r="11.803391" />
    </g>
    <path
       id="path9928"
       style="fill:#f1fa8c;fill-opacity:1;stroke:none;stroke-width:4;stroke-linecap:round;stop-color:#000000"
       d="m 193.69257,167.14277 c -0.22691,4.9e-4 -0.47323,0.0368 -0.72141,0.0749 l -1.48466,1.42213 9.73532,5.98207 9.02684,3.90777 6.32623,2.87217 7.90184,1.95802 9.19944,2.39727 5.40019,1.56838 2.99155,4.29277 11.11198,1.90117 h 8.85993 2.5616 v -20.08611 c 0,0 -6.52673,0.94774 -7.83932,1.27589 -1.31258,0.32814 -6.16172,1.09399 -7.03678,1.09399 -0.87506,0 -3.3178,-0.76584 -5.06791,-0.76584 -1.75011,0 -4.30246,-0.47364 -5.10459,-0.76533 -0.80214,-0.2917 -2.04202,-0.43751 -2.99,-0.40101 -0.94798,0.0365 -4.22924,-1.13027 -4.48448,-1.31258 -0.25521,-0.18231 -1.56787,-1.09388 -2.88045,-1.56787 -1.31259,-0.47402 -2.91689,-0.29191 -3.53673,-0.0367 -0.61983,0.25523 -3.39065,1.9692 -4.15634,1.9327 -0.76566,-0.0364 -3.75563,-1.23988 -4.0473,-1.34927 -0.29168,-0.10938 -0.98443,-0.7659 -1.31258,-1.02113 -0.32814,-0.25523 -1.20313,0.073 -1.71359,0.18242 -0.51044,0.10934 -1.85959,0.14613 -2.47943,-0.0362 -0.61982,-0.1823 -2.44297,-1.38593 -2.80758,-1.45883 -0.36461,-0.0729 -1.49489,0.0733 -1.96888,0.21911 -0.47398,0.14585 -3.79149,0.21863 -4.77593,0.14573 -0.98444,-0.0729 -3.35483,-0.43759 -4.66742,-0.58343 -1.31258,-0.14584 -3.0261,-1.71375 -3.75532,-1.82314 -0.0911,-0.0137 -0.18602,-0.0193 -0.28422,-0.0191 z" />
  </g>
</svg>
